<?xml version="1.0" standalone="no"?>
<!DOCTYPE svg PUBLIC "-//W3C//DTD SVG 20010904//EN"
 "http://www.w3.org/TR/2001/REC-SVG-20010904/DTD/svg10.dtd">
<svg version="1.0" xmlns="http://www.w3.org/2000/svg"
 width="265.000000pt" height="265.000000pt" viewBox="0 0 265.000000 265.000000"
 preserveAspectRatio="xMidYMid meet">
<metadata>
Created by potrace 1.14, written by Peter Selinger 2001-2017
</metadata>
<g transform="translate(0.000000,265.000000) scale(0.100000,-0.100000)"
fill="#000000" stroke="none">
<path d="M0 1325 l0 -1325 1325 0 1325 0 0 1325 0 1325 -1325 0 -1325 0 0
-1325z m1279 910 c251 -49 395 -165 447 -360 20 -75 18 -221 -5 -294 -37 -118
-136 -232 -248 -288 -29 -14 -53 -27 -53 -28 0 -2 20 -15 44 -29 106 -62 157
-162 246 -490 38 -139 78 -276 88 -304 l20 -52 -218 0 -219 0 -19 53 c-28 73
-55 168 -97 336 -20 80 -48 169 -63 199 -51 104 -127 142 -284 142 l-88 0 0
149 0 148 128 6 c145 6 212 23 273 70 116 88 126 284 20 380 -63 57 -124 72
-283 71 l-138 -1 0 160 0 160 183 -6 c105 -3 217 -12 266 -22z"/>
</g>
</svg>
