<?xml version="1.0" encoding="utf-8"?>
<svg version="1.1" id="UI_Logo_Full" xmlns="http://www.w3.org/2000/svg" xmlns:xlink="http://www.w3.org/1999/xlink" x="0px"
     y="0px" width="150.2px" height="70px" viewBox="0 0 150.2 70" style="enable-background:new 0 0 150.2 70;" xml:space="preserve">
<style type="text/css">
    .st0{display:none;fill:#FFFFFF;}
    .st1{fill:#800080;}
    .st2{fill:#FFFFFF;}
    .st3{fill:none;}
    .stcolor{fill:#800080;}
</style>
<path id="Color" class="st0" d="M56.3,51c-2,0-3.9-0.3-5.8-0.9c-1.6-0.5-3.2-1.4-4.4-2.5c-1.2-1.1-2.2-2.5-2.8-4.1
    c-0.7-1.8-1-3.6-1-5.5V20.4h7.7v18.1c-0.1,1.7,0.5,3.3,1.6,4.6c1.2,1.3,3,1.9,4.7,1.8c1.8,0.1,3.5-0.5,4.7-1.8
    c1.1-1.3,1.7-2.9,1.6-4.6V20.4h7.7v17.7c0,1.8-0.3,3.6-1,5.2c-0.6,1.6-1.6,3-2.8,4.1c-1.3,1.2-2.8,2.1-4.4,2.7
    C60.2,50.7,58.3,51.1,56.3,51z M7.6,50.3H0V20.4h7.6L17.7,35h0.5l10.1-14.6h7.6v29.9h-7.6V37.1l0.5-5h-0.5L20.2,44h-4.5L7.6,32.1
    H7.1l0.5,5L7.6,50.3L7.6,50.3z M129.8,50.3h-23.2V20.4h23.2v6.2h-15.5v5.7h14v6.2h-14v5.7h15.5L129.8,50.3L129.8,50.3z M101.3,50.3
    H74.6v-6.5l17.5-17.2H75.4v-6.2h25.7v6.5L83.9,44.2h17.4L101.3,50.3L101.3,50.3z"/>
<circle id="Oval" class="st1" cx="142.2" cy="43" r="6.6"/>
<g>
    <path class="st2" d="M20.5,41.9c-0.8-2.8-1.9-4.8-4-5.6v-0.1c2.6-0.9,5.3-3.6,5.3-7.4c0-2.8-1-4.9-2.8-6.3
        c-2.2-1.7-5.3-2.4-9.8-2.4c-0.8,0-1.5,0-2.2,0c0,1.8,0,3.5,0,5.2c0.5-0.1,1.4-0.2,3-0.2c3.1,0,5,1.4,5,4.2c0,2.6-2,4.3-5.4,4.3H7
        c0,1.6,0,3.3,0,4.9h1.9c2.8,0,4.1,1.1,4.9,4.8c0.9,3.7,1.6,6.2,2.1,7h7C22.3,49.2,21.4,45.3,20.5,41.9z"/>
    <path class="st2" d="M44.7,37.7H33.6v7.1H46v5.6H26.7V20.3h18.7v5.6H33.6v6.2h11.1V37.7z"/>
    <path class="st2 stcolor" d="M50.6,20.3h18.5v5.6H57.5v6.9h10.9v5.5H57.5v12.1h-6.9V20.3z"/>
    <path class="st2" d="M92.3,37.7H81.1v7.1h12.4v5.6H74.3V20.3h18.7v5.6H81.1v6.2h11.1V37.7z"/>
    <path class="st2" d="M123.8,38.9c-0.1-3.6-0.3-8-0.3-12.4h-0.1c-0.9,3.8-2.2,8.1-3.4,11.6l-3.7,11.7H111l-3.2-11.6
        c-1-3.5-2-7.8-2.7-11.7H105c-0.2,4.1-0.3,8.7-0.5,12.5l-0.5,11.4h-6.3l1.9-30.1h9.1l3,10c0.9,3.5,1.9,7.2,2.6,10.8h0.1
        c0.9-3.5,1.9-7.5,2.9-10.8l3.2-10h8.9l1.7,30.1h-6.7L123.8,38.9z"/>
</g>
<line class="st3" x1="-8117" y1="49.9" x2="8266" y2="49.9"/>
<line class="st3" x1="-8117" y1="49.6" x2="8266" y2="49.6"/>
</svg>
