<svg id="Layer_1" data-name="Layer 1" xmlns="http://www.w3.org/2000/svg" width="100.19" height="20.92" viewBox="0 0 100.19 20.92"><defs><style>.cls-1{fill:#fdc113;}.cls-2{fill:#020202;}</style></defs><title>logo-dashboard</title><ellipse id="Oval" class="cls-1" cx="95.55" cy="15.83" rx="4.64" ry="4.53"/><path class="cls-2" d="M10.36,15.07c-.54-1.91-1.36-3.3-2.85-3.88v-.1A5.51,5.51,0,0,0,11.28,6a5.22,5.22,0,0,0-2-4.35C7.79.46,5.57,0,2.4,0L.85,0v3.6a12.78,12.78,0,0,1,2.09-.14c2.22,0,3.55,1,3.55,2.9s-1.42,3-3.83,3H.85v3.39H2.21c2,0,2.89.74,3.46,3.32a24.89,24.89,0,0,0,1.49,4.84H12.1C11.69,20.12,11,17.41,10.36,15.07Z" transform="translate(-0.85)"/><path class="cls-2" d="M27.48,12.14H19.62v4.93H28.4v3.85H14.77V.15H28V4H19.62V8.32h7.86Z" transform="translate(-0.85)"/><path class="cls-2" d="M31.7.15H44.76V4H36.55V8.75h7.67v3.82H36.55v8.35H31.7Z" transform="translate(-0.85)"/><path class="cls-2" d="M61.12,12.14H53.26v4.93H62v3.85H48.41V.15H61.6V4H53.26V8.32h7.86Z" transform="translate(-0.85)"/><path class="cls-2" d="M83.41,13c-.1-2.49-.19-5.51-.19-8.53h-.1c-.66,2.65-1.55,5.61-2.37,8l-2.6,8.1H74.37l-2.28-8c-.7-2.43-1.43-5.39-1.93-8.1h-.07c-.12,2.8-.22,6-.38,8.59l-.38,7.89H64.86L66.22.15h6.44l2.09,6.94c.67,2.4,1.34,5,1.81,7.42h.1c.6-2.4,1.33-5.14,2-7.45L81,.15h6.31l1.17,20.77H83.73Z" transform="translate(-0.85)"/></svg>